<?xml version="1.0" standalone="no"?><!DOCTYPE svg PUBLIC "-//W3C//DTD SVG 1.1//EN" "http://www.w3.org/Graphics/SVG/1.1/DTD/svg11.dtd"><svg t="1756764565229" class="icon" viewBox="0 0 1024 1024" version="1.1" xmlns="http://www.w3.org/2000/svg" p-id="5646" xmlns:xlink="http://www.w3.org/1999/xlink" width="200" height="200"><path d="M613 108.5c9.5 32.3 22.6 65.8 38.5 98.2 26.6 54.3 58.9 102.2 93.6 139.1l6.3 12.1 0.9 1.7 1 1.6c29.1 45.7 44.5 98.6 44.5 153 0 59.1-17.9 115.8-51.8 163.9l-0.7 1-1 1.4c-8.7 12.1-18.5 23.7-29 34.3l-2.1 2.2-1.8 2.4c-22.1 29.5-42.3 62.8-59.9 98.8-15.9 32.4-28.9 65.8-38.5 98.2H413c-9.5-32.3-22.6-65.8-38.5-98.2-17.3-35.3-37-68-58.6-97.1l-1.9-2.6-2.3-2.3c-11.1-11.1-21.3-23.1-30.4-35.7l-1.6-2.2c-33.9-48.1-51.8-104.8-51.8-163.9 0-54.4 15.4-107.3 44.5-153l1-1.6 0.9-1.7 5.9-11.2c35.1-36.9 67.6-85.2 94.5-140 15.9-32.4 28.9-65.8 38.5-98.2H613m25.4-44.2H387.3c-3.3 0-6.4 1.1-9 3-8.5 37.3-22.9 78.3-43.2 119.8-26.7 54.5-58.9 100.7-91 133.3l-8.8 16.8c-32.5 51-51.4 111.6-51.4 176.7 0 70.4 22.2 135.7 59.9 189.2l0.4 0.7 0.4 0.4c10.8 15.2 22.9 29.5 36.1 42.7 19.4 26.1 38 56.5 54.4 90.2 20.3 41.5 34.8 82.6 43.2 119.8 2.6 1.9 5.7 3 9 3h251.1c3.5 0 6.8-1.2 9.4-3.3 8.5-37.2 22.9-78.1 43.2-119.5 16.8-34.3 35.8-65.3 55.6-91.8 12.1-12.3 23.3-25.5 33.4-39.5 0.4-0.4 0.8-0.8 1.1-1.2l0.8-1.5c37.7-53.5 59.9-118.8 59.9-189.2 0-65-18.9-125.6-51.4-176.7l-9.2-17.7c-31.8-32.6-63.7-78.4-90.2-132.5-20.3-41.4-34.7-82.3-43.2-119.5-2.6-2-5.9-3.2-9.4-3.2z" p-id="5647" fill="#8a8a8a"></path><path d="M512.4 228.1c38.5 0 75.8 7.5 110.9 22.4 33.9 14.4 64.4 34.9 90.6 61.1 26.2 26.2 46.7 56.7 61.1 90.6 14.8 35.1 22.4 72.4 22.4 110.9S789.9 588.9 775 624c-14.4 33.9-34.9 64.4-61.1 90.6-26.2 26.2-56.7 46.7-90.6 61.1-35.1 14.8-72.4 22.4-110.9 22.4s-75.8-7.5-110.9-22.4c-33.9-14.4-64.4-34.9-90.6-61.1-26.2-26.2-46.7-56.7-61.1-90.6-14.8-35.1-22.4-72.4-22.4-110.9s7.5-75.8 22.4-110.9c14.4-33.9 34.9-64.4 61.1-90.6 26.2-26.2 56.7-46.7 90.6-61.1 35.1-14.9 72.4-22.4 110.9-22.4m0-44c-181.7 0-329 147.3-329 329s147.3 329 329 329 329-147.3 329-329-147.3-329-329-329z" p-id="5648" fill="#8a8a8a"></path><path d="M492.8 552.1h-0.2c-12.2-0.1-21.9-10.1-21.8-22.2l1.7-184.9c0.1-12.1 10.1-21.9 22.2-21.8 12.2 0.1 21.9 10.1 21.8 22.2l-1.7 184.9c-0.1 12.1-10 21.8-22 21.8z" p-id="5649" fill="#8a8a8a"></path><path d="M649.8 553.9h-0.2l-157-1.7c-12.1-0.1-21.9-10.1-21.8-22.2 0.1-12.1 10-21.8 22-21.8h0.2l157 1.7c12.1 0.1 21.9 10.1 21.8 22.2-0.2 12.1-10 21.8-22 21.8z" p-id="5650" fill="#8a8a8a"></path></svg>