<?xml version="1.0" standalone="no"?><!DOCTYPE svg PUBLIC "-//W3C//DTD SVG 1.1//EN" "http://www.w3.org/Graphics/SVG/1.1/DTD/svg11.dtd"><svg t="1756764681350" class="icon" viewBox="0 0 1024 1024" version="1.1" xmlns="http://www.w3.org/2000/svg" p-id="8458" xmlns:xlink="http://www.w3.org/1999/xlink" width="200" height="200"><path d="M691.620626 984.401572C688.468914 985.990896 613.339651 1024.026938 511.973062 1024.026938 412.869241 1024.026938 335.800463 986.125585 332.567938 984.509323 324.594377 980.522542 319.583964 972.44123 319.583964 963.605662L319.583964 567.944632C319.583964 560.482888 323.166679 553.479084 329.254601 549.088238 335.315584 544.670454 343.073644 543.404382 350.346825 545.613274 350.4007 545.613274 350.723952 545.721025 351.289644 545.882651L351.289644 298.082691C351.289644 285.152592 361.876163 274.673824 374.967888 274.673824L375.722144 274.673824 375.722144 67.657551C375.722144 60.114993 379.385672 53.057314 385.554407 48.666468L447.75357 4.407817C456.5622-1.895606 468.630293-1.38379 476.927106 5.593076L639.927167 143.002316C645.233895 147.473975 648.250918 153.965962 648.250918 160.835077L648.250918 274.673824 649.032112 274.673824C662.123837 274.673824 672.710356 285.152592 672.710356 298.082691L672.710356 545.801838C673.760926 545.532461 674.461307 545.343897 674.54212 545.316959 681.626737 543.458257 689.250107 544.939831 695.122527 549.357615 700.96801 553.775399 704.389098 560.644514 704.389098 567.944632L704.389098 963.605662C704.389098 972.333479 699.459498 980.333978 691.620626 984.401572ZM600.921368 171.637098 460.333479 53.138128 423.051694 79.644831 423.051694 274.673824 600.921368 274.673824 600.921368 171.637098ZM625.380806 321.491558 624.572675 321.491558 399.37345 321.491558 398.646132 321.491558 398.646132 553.29052C422.51294 558.758875 468.172352 567.567505 514.963148 567.863819 543.059175 567.648318 571.936396 564.631295 597.284778 560.80614 608.787179 558.651124 618.323127 556.388356 625.380806 554.448842L625.380806 321.491558ZM657.032611 597.522234C642.890315 600.566195 624.491861 604.041159 603.965329 607.138995 584.650994 610.640897 560.595622 613.442418 532.580408 614.277487 532.55347 614.277487 532.526532 614.277487 532.499594 614.277487 527.435306 614.439114 522.613456 614.735428 517.27979 614.735428 516.256158 614.735428 515.232525 614.681553 514.208892 614.681553 513.454636 614.681553 512.70038 614.735428 511.973062 614.735428 451.309348 614.735428 398.457568 605.388044 366.940452 598.249552L366.940452 948.358921C391.184387 958.164246 446.729938 977.209204 511.973062 977.209204 578.967138 977.209204 633.381305 958.298934 657.032611 948.547485L657.032611 597.522234ZM443.254974 526.218125C433.449648 526.218125 425.503025 518.352315 425.503025 508.654741L425.503025 353.1703C425.503025 343.472726 433.449648 335.606916 443.254974 335.606916 453.060299 335.606916 461.006922 343.472726 461.006922 353.1703L461.006922 508.654741C461.006922 518.352315 453.060299 526.218125 443.254974 526.218125Z" p-id="8459" fill="#8a8a8a"></path></svg>