<?xml version="1.0" standalone="no"?><!DOCTYPE svg PUBLIC "-//W3C//DTD SVG 1.1//EN" "http://www.w3.org/Graphics/SVG/1.1/DTD/svg11.dtd"><svg t="1756764757663" class="icon" viewBox="0 0 1024 1024" version="1.1" xmlns="http://www.w3.org/2000/svg" p-id="11040" xmlns:xlink="http://www.w3.org/1999/xlink" width="200" height="200"><path d="M289.16967 314.075585c0 0.388053 0 0.740828 0.035277 1.12888 1.12888 31.255865 26.775623 41.76856 52.422366 41.76856 26.24646 0 122.448203-39.581355 144.284976-39.581355 8.74882 0 74.329693 43.955765 96.201743 61.559238-30.62087 37.358873-163.969821 138.499466-170.531436 158.290143l-2.187206 28.574776c0 30.76198 69.955283 54.962345 94.014539 65.968925l109.324973 52.775141c-13.12323 28.574775-102.763358 160.477349-102.763358 180.268026-2.187205 13.193785 15.310435 50.552658 39.36969 50.552658 34.99528 0 45.896028-24.200365 61.206463-46.178248 26.24646-43.955765 87.452923-147.283564 109.324973-189.052124 32.808075-48.365453-54.644848-74.753023-76.516898-85.724326l-104.950563-46.178247c17.49764-26.38757 153.033796-138.499466 163.969821-156.102939 2.187205-8.784098 4.37441-35.171668-6.561615-48.365453-60.53619-44.943535-123.294863-86.747373-188.029076-125.305681-30.62087 0-115.886588 26.38757-131.161746 30.76198-38.769973 12.98212-86.041823 15.310435-87.452923 63.746443v1.093603z m91.827333 267.156509c-98.388948 156.102939-45.896028 98.918111-135.536156 153.880456l-104.950563 59.372033c-52.457643 35.171668-76.516898 35.171668-76.516899 74.753023 0 21.977883 28.433665 57.14955 65.580873 39.581356l174.905847-101.140594c65.580873-37.358873 59.019258-26.38757 87.452923-68.15613l61.206463-98.918111c-13.12323-6.596893-59.019258-17.603473-72.142488-59.372033z m529.056671-175.858339c19.367348-17.63875 35.630275-38.452475 48.083233-61.559237 8.74882-32.984463-15.310435-59.372033-48.083233-59.372033-30.62087 0-98.388948 96.730906-124.600131 118.708788l-50.270438-32.984463c8.74882 41.76856-32.808075 68.15613-45.896027 79.127433 21.87205 13.193785 78.704103 61.559238 104.950563 61.559238 34.924725 0.035278 91.792056-81.314638 115.816033-105.479726z m-41.521618-189.087401c0-59.477865-47.9774-107.737486-107.137768-107.737486s-107.137768 48.224343-107.137768 107.737486 47.9774 107.737486 107.137768 107.737486S868.532056 275.799497 868.532056 216.286354zM289.16967 314.322527v0.917215-0.917215z m0-0.246942v-1.058325 1.058325z" p-id="11041" fill="#8a8a8a"></path></svg>