<?xml version="1.0" standalone="no"?><!DOCTYPE svg PUBLIC "-//W3C//DTD SVG 1.1//EN" "http://www.w3.org/Graphics/SVG/1.1/DTD/svg11.dtd"><svg t="1756765097819" class="icon" viewBox="0 0 1024 1024" version="1.1" xmlns="http://www.w3.org/2000/svg" p-id="21795" xmlns:xlink="http://www.w3.org/1999/xlink" width="200" height="200"><path d="M798.92031182 319.5660229c-12.49016551 0-23.80201355-8.58698881-26.73307833-21.28335987l-14.52276324-62.76013599c-1.16358854-4.72799898-5.87685854-7.64433479-10.54594162-6.52493315l-0.17674764 0.04418689-386.70907528 89.80252264c-14.77315568 3.43184972-29.53158241-5.75902679-32.96343214-20.54691144-3.43184972-14.77315568 5.75902679-29.53158241 20.54691144-32.96343213l386.63543047-89.78779368c34.09756272-8.10093283 68.48970482 13.06459531 76.66428248 47.25053185l0.04418691 0.20620556 14.55222116 62.89269669c3.41712077 14.77315568-5.78848474 29.53158241-20.56164043 32.94870315-2.09151357 0.48605597-4.16829817 0.72171947-6.23035378 0.72171948z" fill="#8a8a8a" p-id="21796"></path><path d="M894.39348746 497.53615265c-15.17083783 0-27.46952676-12.29868893-27.46952679-27.46952676v-141.7221376c0-4.84583072-3.94736364-8.7784654-8.77846541-8.77846539h-689.90489759c-4.84583072 0-8.7784654 3.94736364-8.7784654 8.77846539v141.7221376c0 15.17083783-12.29868893 27.46952676-27.46952678 27.46952676s-27.46952676-12.29868893-27.46952676-27.46952676v-141.7221376c0-35.12859054 28.57419943-63.71751894 63.71751894-63.71751894h689.90489759c35.12859054 0 63.71751894 28.58892839 63.71751895 63.71751894v141.7221376c0 15.17083783-12.29868893 27.46952676-27.46952675 27.46952676zM858.14549526 855.95087892h-689.90489759c-35.12859054 0-63.71751894-28.58892839-63.71751894-63.71751893v-141.72213759c0-15.17083783 12.29868893-27.46952676 27.46952676-27.46952677s27.46952676 12.29868893 27.46952678 27.46952677v141.72213759c0 4.84583072 3.94736364 8.7784654 8.7784654 8.77846539h689.90489759c4.84583072 0 8.7784654-3.94736364 8.77846541-8.77846539v-141.72213759c0-15.17083783 12.29868893-27.46952676 27.46952679-27.46952677s27.46952676 12.29868893 27.46952675 27.46952677v141.72213759c0 35.12859054-28.58892839 63.71751894-63.71751895 63.71751893z" fill="#8a8a8a" p-id="21797"></path><path d="M894.39348746 677.98074917c-64.82219159 0-117.55189984-52.72970823-117.55189985-117.55189983 0-64.96948129 52.72970823-117.83175024 117.55189985-117.83175023 15.17083783 0 27.46952676 12.29868893 27.46952675 27.46952678s-12.29868893 27.46952676-27.46952675 27.46952676c-34.52470283 0-62.61284627 28.22070418-62.6128463 62.89269669 0 34.52470283 28.08814346 62.61284627 62.6128463 62.61284629 15.17083783 0 27.46952676 12.29868893 27.46952675 27.46952677s-12.29868893 27.46952676-27.46952675 27.46952677zM131.97787651 677.98074917c-15.17083783 0-27.46952676-12.29868893-27.46952675-27.46952677s12.29868893-27.46952676 27.46952675-27.46952677c34.52470283 0 62.61284627-28.08814346 62.6128463-62.61284629 0-34.68672148-28.08814346-62.89269668-62.6128463-62.89269669-15.17083783 0-27.46952676-12.29868893-27.46952675-27.46952676s12.29868893-27.46952676 27.46952675-27.46952678c64.82219159 0 117.55189984 52.86226895 117.55189984 117.83175023 0 64.82219159-52.72970823 117.55189984-117.55189984 117.55189983zM619.94861217 553.83027133H406.43748077c-15.17083783 0-27.46952676-12.29868893-27.46952679-27.46952676 0-15.17083783 12.29868893-27.46952676 27.46952679-27.46952678h213.5111314c15.17083783 0 27.46952676 12.29868893 27.46952678 27.46952678 0 15.17083783-12.29868893 27.46952676-27.46952678 27.46952676z" fill="#8a8a8a" p-id="21798"></path><path d="M513.19304647 745.54252897c-15.17083783 0-27.46952676-12.29868893-27.46952677-27.46952678V526.36074457c0-15.17083783 12.29868893-27.46952676 27.46952677-27.46952678s27.46952676 12.29868893 27.46952677 27.46952678v191.71225762c0 15.17083783-12.29868893 27.46952676-27.46952677 27.46952678z" fill="#8a8a8a" p-id="21799"></path><path d="M524.69637108 544.5952079c-7.0257181 0-14.05143621-2.68067231-19.42750981-8.04201696-10.72268926-10.72268926-10.72268926-28.11760141 0-38.84029066l96.54839036-96.53366137c10.72268926-10.72268926 28.11760141-10.72268926 38.84029066 0 10.72268926 10.72268926 10.72268926 28.11760141 0 38.84029067l-96.54839036 96.53366136a27.3678969 27.3678969 0 0 1-19.41278085 8.04201696z" fill="#8a8a8a" p-id="21800"></path><path d="M501.67499289 544.5952079c-7.0257181 0-14.05143621-2.68067231-19.42750983-8.04201696l-96.53366137-96.53366136c-10.72268926-10.72268926-10.72268926-28.11760141 0-38.84029067s28.11760141-10.72268926 38.84029067 0l96.53366138 96.53366137c10.72268926 10.72268926 10.72268926 28.11760141 0 38.84029066a27.34285765 27.34285765 0 0 1-19.41278085 8.04201696z" fill="#8a8a8a" p-id="21801"></path></svg>