<?xml version="1.0" standalone="no"?><!DOCTYPE svg PUBLIC "-//W3C//DTD SVG 1.1//EN" "http://www.w3.org/Graphics/SVG/1.1/DTD/svg11.dtd"><svg t="1756765137460" class="icon" viewBox="0 0 1024 1024" version="1.1" xmlns="http://www.w3.org/2000/svg" p-id="23044" xmlns:xlink="http://www.w3.org/1999/xlink" width="200" height="200"><path d="M915.184177 518.571672c11.766998 0 21.310352-9.561773 21.310352-21.327748L936.494529 265.848811c0-44.770669-36.261878-81.033571-81.027431-81.033571L161.908018 184.815239c-44.768623 0-81.030501 36.262902-81.030501 81.033571l0 490.908636c0 44.769646 36.262902 81.005942 81.030501 81.005942L855.467097 837.763388c44.765553 0 81.027431-36.236296 81.027431-81.005942l0-67.518766c-0.066515-11.721973-9.565866-21.219277-21.310352-21.219277-11.737322 0-21.284769 9.497305-21.323655 21.219277l0 0.044002c0 0.042979 0 0.042979 0 0.085958l0 63.123666c0 23.571858-19.132756 42.659589-42.662659 42.659589l-407.951249 0c-0.020466 0-0.020466 0-0.047072 0L166.177252 795.151895c-23.528879 0-42.662659-19.087731-42.662659-42.659589L123.514593 423.071621l770.346953 0 0 74.172303C893.860523 509.010923 903.397736 518.571672 915.184177 518.571672zM123.51357 270.114974c0-23.553439 19.133779-42.660612 42.662659-42.660612l685.020612 0c23.529903 0 42.662659 19.107173 42.662659 42.660612l0 27.287483L123.51357 297.402457 123.51357 270.114974zM123.51357 380.435569l0-40.395012 770.346953 0 0 40.395012L123.51357 380.435569zM760.290411 632.263038l0 131.090641 20.411889 0L780.7023 714.096834l33.20117 0c31.881105-0.441045 48.068785-14.470573 48.50983-42.208311-1.696642-25.136493-17.216103-38.32998-46.579875-39.626509L760.290411 632.262014zM841.366961 672.569022c-0.440022 16.621563-10.467399 25.12319-29.995151 25.560142l-30.66951 0 0-49.881061 30.66951 0C830.505589 648.666636 840.467475 656.802944 841.366961 672.569022zM726.823182 763.353678 726.823182 632.263038l-19.768229 0 0 131.090641L726.823182 763.353678zM242.784 728.741369l0-77.834716-77.708849 0 0 77.834716L242.784 728.741369zM623.183753 746.070037c-0.855484-1.717108-14.904455-39.625486-42.154076-113.808022l-21.660322 0 52.317553 131.090641 22.340821 0 52.353368-131.090641-22.358217 0c-26.368554 73.741491-39.785122 111.648846-40.178071 113.808022L623.183753 746.070037z" fill="#8a8a8a" p-id="23045"></path></svg>