<?xml version="1.0" standalone="no"?><!DOCTYPE svg PUBLIC "-//W3C//DTD SVG 1.1//EN" "http://www.w3.org/Graphics/SVG/1.1/DTD/svg11.dtd"><svg t="1756799933818" class="icon" viewBox="0 0 1024 1024" version="1.1" xmlns="http://www.w3.org/2000/svg" p-id="3004" xmlns:xlink="http://www.w3.org/1999/xlink" width="200" height="200"><path d="M512 896c-230.4 0-277.3-67.7-284.4-81.2-3.5-6.8-4.5-14.5-2.8-22L319.4 383l-31-185.7c-2.8-16.5 7.6-32.3 23.8-36.3l128-32c9.5-2.4 19.7-0.2 27.5 5.8 7.8 6.1 12.3 15.4 12.3 25.2 0 18.5 13.5 32 32 32 17.6 0 32-14.4 32-32 0-9.9 4.5-19.2 12.3-25.2 7.8-6.1 17.9-8.2 27.5-5.8l128 32c16.2 4 26.5 19.8 23.8 36.3l-31 185.7 94.6 409.8c1.7 7.4 0.7 15.2-2.8 22C789.3 828.3 742.4 896 512 896zM291 790.7C308.3 803 364.1 832 512 832c146.1 0 202.4-28.3 220.9-41.8l-92.1-399c-0.9-4.1-1.1-8.3-0.4-12.5l27.1-162.9-67.8-17c-15 33.6-48.7 57.1-87.8 57.1-39.9 0-73.3-23.1-88-57l-67.5 16.9 27.1 162.9c0.7 4.1 0.6 8.4-0.4 12.5L291 790.7z" p-id="3005" fill="#0e932e"></path></svg>