<?xml version="1.0" standalone="no"?><!DOCTYPE svg PUBLIC "-//W3C//DTD SVG 1.1//EN" "http://www.w3.org/Graphics/SVG/1.1/DTD/svg11.dtd"><svg t="1756766492095" class="icon" viewBox="0 0 1024 1024" version="1.1" xmlns="http://www.w3.org/2000/svg" p-id="34489" xmlns:xlink="http://www.w3.org/1999/xlink" width="200" height="200"><path d="M490.6496 92.16a398.4896 398.4896 0 1 0 0 797.0304 398.4896 398.4896 0 0 0 0-797.0304z m0 71.68a326.8096 326.8096 0 1 1 0 653.6704 326.8096 326.8096 0 0 1 0-653.6704z" fill="#0e932e" p-id="34490"></path><path d="M490.6496 262.8096c55.5008 0 107.5712 22.016 146.0224 60.5184a35.84 35.84 0 0 1-50.688 50.688 134.2464 134.2464 0 0 0-95.3344-39.5264c-36.2496 0-70.144 14.336-95.3344 39.5264a35.84 35.84 0 0 1-50.688-50.688 205.9264 205.9264 0 0 1 146.0224-60.5184zM726.016 726.016a35.84 35.84 0 0 1 46.2848-3.7376l4.4544 3.7888 180.992 180.992a35.84 35.84 0 0 1-46.2336 54.4768l-4.4544-3.7888-180.992-180.992a35.84 35.84 0 0 1 0-50.688z" fill="#0e932e" p-id="34491"></path></svg>