<?xml version="1.0" standalone="no"?><!DOCTYPE svg PUBLIC "-//W3C//DTD SVG 1.1//EN" "http://www.w3.org/Graphics/SVG/1.1/DTD/svg11.dtd"><svg t="1756764939002" class="icon" viewBox="0 0 1024 1024" version="1.1" xmlns="http://www.w3.org/2000/svg" p-id="16847" xmlns:xlink="http://www.w3.org/1999/xlink" width="200" height="200"><path d="M559.8208 850.5856H229.632c-31.5392 0-57.1904-24.0128-57.1904-53.4528v-588.8c0-29.4912 25.6-53.4528 57.1904-53.4528h465.92C727.04 155.0336 752.64 179.2 752.64 208.4864v241.3568a28.16 28.16 0 0 0 56.32 0V208.4864c0-60.5184-50.8928-109.7728-113.5104-109.7728h-465.92c-62.5664 0-113.5104 49.2544-113.5104 109.7728v588.8c0 60.5184 51.2 109.7728 113.5104 109.7728h330.1888a28.16 28.16 0 1 0 0-56.32z" fill="#8a8a8a" p-id="16848"></path><path d="M626.9952 330.5472a28.16 28.16 0 0 0-28.16-28.16H298.7008a28.16 28.16 0 0 0 0 56.32H599.04a28.16 28.16 0 0 0 27.9552-28.16zM534.0672 467.7632a28.16 28.16 0 0 0-28.16-28.16H298.7008a28.16 28.16 0 1 0 0 56.32h207.2064a28.16 28.16 0 0 0 28.16-28.16zM298.7008 589.7216a28.16 28.16 0 0 0 0 56.32h140.7488a28.16 28.16 0 0 0 0-56.32zM750.7968 523.3664A181.0944 181.0944 0 1 0 931.84 704.4608a181.2992 181.2992 0 0 0-181.0432-181.0944z m0 305.8176A124.7744 124.7744 0 1 1 875.52 704.4608 124.8768 124.8768 0 0 1 750.7968 829.44z" fill="#8a8a8a" p-id="16849"></path><path d="M770.048 705.4848v-63.8464a28.16 28.16 0 0 0-56.32 0v92.16a28.16 28.16 0 0 0 28.16 28.16h78.336a28.16 28.16 0 0 0 0-56.32z" fill="#8a8a8a" p-id="16850"></path></svg>