<?xml version="1.0" standalone="no"?><!DOCTYPE svg PUBLIC "-//W3C//DTD SVG 1.1//EN" "http://www.w3.org/Graphics/SVG/1.1/DTD/svg11.dtd"><svg t="1756765062706" class="icon" viewBox="0 0 1024 1024" version="1.1" xmlns="http://www.w3.org/2000/svg" p-id="20704" xmlns:xlink="http://www.w3.org/1999/xlink" width="200" height="200"><path d="M416.88 793.7V303.54c0-29.82 24.26-54.08 54.08-54.08h471.329c29.82 0 54.08 24.26 54.08 54.08V793.7c0 29.82-24.26 54.08-54.08 54.08h-110.64v-16.379c0-42.94-34.944-77.885-77.894-77.885s-77.89 34.94-77.89 77.885v16.38H470.96c-29.82-0.001-54.08-24.26-54.08-54.08z m336.875-72.93c55.446 0 101.495 40.99 109.435 94.26h79.1c11.76 0 21.33-9.57 21.33-21.33V303.54c0-11.765-9.57-21.335-21.33-21.335H470.96c-11.76 0-21.33 9.57-21.33 21.335V793.7c0 11.76 9.57 21.33 21.33 21.33h173.365c7.94-53.27 53.99-94.26 109.43-94.26zM58.67 793.7V595.75c0-7.88 2.39-22.225 23.06-55.7 12.525-20.28 29.9-44.41 48.92-67.94 19.08-23.606 38.655-45.156 55.11-60.681 28.19-26.59 41.28-30 49.535-30H395.55c29.82 0 54.08 24.255 54.08 54.075V793.7c0 29.82-24.26 54.08-54.08 54.08h-54.08V831.4c0-42.94-34.946-77.885-77.895-77.885s-77.895 34.94-77.895 77.886v16.38h-72.93c-29.82 0-54.08-24.26-54.08-54.08z m204.905-72.93c55.445 0 101.494 40.995 109.434 94.26h22.54c11.76 0 21.33-9.57 21.33-21.33V435.505c0-11.765-9.57-21.335-21.33-21.335H235.96c-1.58 0.505-10.23 4-31.545 24.74-15.455 15.04-33.61 35.39-51.115 57.295-17.57 21.975-33.425 44.21-44.66 62.6-17.03 27.885-17.22 36.585-17.22 36.945V793.7c0 11.76 9.566 21.33 21.33 21.33h41.396c7.934-53.27 53.984-94.26 109.429-94.26zM58.67 640.4v-44.65c0-35.575 66.385-117.05 79.695-133.02l4.905-5.89h139.16c29.82 0 54.08 24.256 54.08 54.07v75.415c0 29.815-24.26 54.075-54.08 54.075H58.67z m99.99-150.82c-17.825 21.815-34.19 44.175-46.495 63.575-20.515 32.34-20.745 42.19-20.745 42.595v11.905h191.01c11.76 0 21.33-9.57 21.33-21.33V510.91c0-11.76-9.57-21.33-21.33-21.33H158.66z m-5.725 341.825c0-61.005 49.636-110.635 110.64-110.635s110.64 49.63 110.64 110.635S324.58 942.04 263.576 942.04s-110.64-49.63-110.64-110.635z m32.745-0.005c0 42.95 34.945 77.895 77.895 77.895s77.894-34.945 77.894-77.895c0-42.94-34.945-77.886-77.894-77.886S185.68 788.455 185.68 831.4z m457.44 0.005c0-61.005 49.63-110.635 110.635-110.635 61.01 0 110.64 49.63 110.64 110.635s-49.63 110.635-110.64 110.635c-61.005 0-110.635-49.63-110.635-110.635z m32.745-0.005c0 42.95 34.94 77.895 77.89 77.895s77.894-34.945 77.894-77.895c0-42.94-34.945-77.886-77.895-77.886s-77.89 34.941-77.89 77.886z" p-id="20705" fill="#8a8a8a"></path></svg>