<?xml version="1.0" standalone="no"?><!DOCTYPE svg PUBLIC "-//W3C//DTD SVG 1.1//EN" "http://www.w3.org/Graphics/SVG/1.1/DTD/svg11.dtd"><svg t="1756799880467" class="icon" viewBox="0 0 1024 1024" version="1.1" xmlns="http://www.w3.org/2000/svg" p-id="1755" xmlns:xlink="http://www.w3.org/1999/xlink" width="200" height="200"><path d="M924.670194 197.214815c0-49.123104-39.731922-88.855026-88.855026-88.855026l-193.964021-53.818695-0.361199-0.361199-0.361199 0.361199-0.722399-0.361199 0 1.083598L505.679012 171.208466l-134.004938-116.306173L371.674074 54.179894l-1.083598 0.361199-0.361199-0.361199-0.722399 0.722399L192.880423 108.359788c-49.123104 0-88.855026 39.731922-88.855026 88.855026l-43.343915 426.937566c0 49.123104 39.731922 88.855026 88.855026 88.855026l40.454321 0 0 160.372487c0 49.123104 39.731922 88.855026 88.855026 88.855026l472.448677 0c49.123104 0 88.855026-39.731922 88.855026-88.855026l0-160.372487 39.009524 0c49.123104 0 88.855026-39.731922 88.855026-88.855026L924.670194 197.214815zM879.159083 654.131922l-39.009524 0 0-57.069489-59.236684 0 0 276.67866c0 16.253968-13.364374 29.618342-29.618342 29.618342L278.845855 903.359436c-16.253968 0-29.618342-13.364374-29.618342-29.618342l0-276.67866L189.990829 597.062434l0 57.069489L149.175309 654.131922c-16.253968 0-29.618342-13.364374-29.618342-29.618342l43.343915-426.937566c0-16.253968 13.364374-29.618342 29.618342-29.618342l164.345679-49.845503 148.091711 128.22575L505.679012 245.61552l0.722399 0.722399 148.45291-128.586949 180.599647 50.206702c16.253968 0 29.618342 13.364374 29.618342 29.618342l43.343915 426.937566C908.777425 640.767549 895.413051 654.131922 879.159083 654.131922z" fill="#0e932e" p-id="1756"></path><path d="M518.682187 301.601411 571.778483 575.029277 505.679012 641.851146 435.606349 570.694885 491.59224 300.879012 444.275132 261.508289 377.814462 595.978836 421.519577 638.961552 421.880776 637.516755 465.94709 682.305467 465.94709 682.305467 465.94709 682.666667 505.317813 722.398589 505.679012 722.03739 506.401411 722.398589 544.688536 683.389065 545.772134 682.305467 545.772134 682.305467 585.142857 642.212346 585.142857 643.295944 628.847972 600.313228 562.387302 265.842681Z" fill="#0e932e" p-id="1757"></path></svg>