<?xml version="1.0" standalone="no"?><!DOCTYPE svg PUBLIC "-//W3C//DTD SVG 1.1//EN" "http://www.w3.org/Graphics/SVG/1.1/DTD/svg11.dtd"><svg t="1756767985655" class="icon" viewBox="0 0 1024 1024" version="1.1" xmlns="http://www.w3.org/2000/svg" p-id="41966" xmlns:xlink="http://www.w3.org/1999/xlink" width="200" height="200"><path d="M1005.776963 325.195453c-6.851035-3.27458-15.018042-1.87265-20.385283 3.494591l-80.316234 80.316234c-40.446177 40.444131-106.258069 40.445154-146.704247 0l-80.316234-80.317257c-0.339738-0.339738-0.698918-0.649799-1.058099-0.956791l-64.984037-64.983014c-26.357298-26.360368-61.400419-40.876989-98.67537-40.876989-37.274952 0-72.319096 14.516622-98.67537 40.875966l-65.494667 65.494667c-0.162706 0.151449-0.335644 0.287549-0.494257 0.446162l-80.316234 80.317257c-40.445154 40.447201-106.257046 40.446177-146.703223 0l-80.317257-80.317257c-5.374404-5.375427-13.557784-6.771217-20.410865-3.482311-6.853082 3.287883-10.882861 10.54517-10.05296 18.10024l47.872311 435.765735c0.997724 9.078773 8.667404 15.95232 17.801435 15.95232l573.642942 0c23.893176 0.184195 92.461855 5.853311 123.33398 29.598108 3.254114 2.503007 7.094582 3.714602 10.904351 3.714602 5.369288 0 10.68127-2.405793 14.207583-6.991228 6.030343-7.838525 4.562922-19.081591-3.276626-25.111934-46.793746-35.991726-140.999314-36.998659-144.987139-37.025265-0.037862 0-0.075725 0-0.113587 0L92.593861 759.209288l-40.555671-369.167944 44.289716 44.289716c54.411237 54.410214 142.943596 54.410214 197.354833 0l65.49569-65.496713c0.162706-0.151449 0.333598-0.286526 0.49221-0.445138l80.317257-80.317257c19.59222-19.593244 45.641503-30.385031 73.349565-30.385031 27.707039 0 53.756321 10.790764 73.349565 30.386054l80.317257 80.316234c0.338714 0.338714 0.695848 0.64673 1.054005 0.952698l64.98813 64.98813c54.409191 54.406121 142.94155 54.408167 197.35381 0l44.463678-44.464701-39.436174 369.341906-92.068905 0c-9.890254 0-17.907858 8.017604-17.907858 17.907858s8.017604 17.907858 17.907858 17.907858l108.165512 0c9.153474 0 16.83441-6.904247 17.806551-16.006556l46.529733-435.765735C1016.666988 335.705831 1012.625952 328.470033 1005.776963 325.195453z" fill="#FF9000" p-id="41967"></path><path d="M442.358897 396.197554c0 39.151695 31.852452 71.00517 71.00517 71.00517s71.00517-31.852452 71.00517-71.00517c0-39.154765-31.852452-71.009264-71.00517-71.009264S442.358897 357.042789 442.358897 396.197554zM548.553521 396.197554c0 19.402909-15.785521 35.189454-35.189454 35.189454-19.402909 0-35.189454-15.785521-35.189454-35.189454 0-19.404955 15.785521-35.193547 35.189454-35.193547C532.767999 361.004007 548.553521 376.792599 548.553521 396.197554z" fill="#FF9000" p-id="41968"></path></svg>