<?xml version="1.0" standalone="no"?><!DOCTYPE svg PUBLIC "-//W3C//DTD SVG 1.1//EN" "http://www.w3.org/Graphics/SVG/1.1/DTD/svg11.dtd"><svg t="1756767886356" class="icon" viewBox="0 0 1024 1024" version="1.1" xmlns="http://www.w3.org/2000/svg" p-id="39805" xmlns:xlink="http://www.w3.org/1999/xlink" width="200" height="200"><path d="M170.831634 634.500111c-7.346041 2.555145-14.532386 5.429683-21.559035 8.30422a36.091421 36.091421 0 0 0-19.962069 13.574207A15.969655 15.969655 0 0 0 143.044434 679.374842a45.034428 45.034428 0 0 0 21.239641-7.186345c5.11029-2.395448 10.539972-4.311807 15.969655-6.228166A16.927834 16.927834 0 0 0 190.953399 645.838566a15.969655 15.969655 0 0 0-20.281462-11.338455z m-24.273876 134.624193l-3.513324 1.277572a24.433572 24.433572 0 0 0 4.311807-1.756662 22.836607 22.836607 0 0 0 3.832717-3.034234l-3.193931 2.555144 2.235752-1.596965-3.992414 1.756662h1.117876H143.044434a20.600855 20.600855 0 0 0 8.78331-1.756662 15.969655 15.969655 0 0 0 7.186345-9.901186 38.965959 38.965959 0 0 0-1.596966 3.832717v-1.916359a7.186345 7.186345 0 0 0 1.596966-3.992414 11.817545 11.817545 0 0 0 0-6.228165 13.41451 13.41451 0 0 0-3.034235-5.589379 7.505738 7.505738 0 0 0-2.874537-3.034235 13.733903 13.733903 0 0 0-5.429683-2.874538L143.044434 736.226814a24.593269 24.593269 0 0 0-4.790897 0 13.41451 13.41451 0 0 0-3.193931 1.277572 8.943007 8.943007 0 0 0-3.034234 1.437269 20.920248 20.920248 0 0 0-6.387862 6.547559s0 1.596966-1.117876 2.395448a12.136938 12.136938 0 0 0-1.437269 6.387862 21.559034 21.559034 0 0 0 0 4.471504 14.212993 14.212993 0 0 0 3.832717 6.707255 10.220579 10.220579 0 0 0 4.950593 3.193931 10.380276 10.380276 0 0 0 5.908773 1.277572 13.095117 13.095117 0 0 0 7.505738-2.076055z m274.518372 149.795365a18.844193 18.844193 0 0 0-6.547558-2.235752l5.749075 3.353628-1.117875-1.117876a17.726317 17.726317 0 0 0-11.657849-4.790897 19.962069 19.962069 0 0 0-11.657848 4.790897 22.197821 22.197821 0 0 0-6.068469 23.315697 23.954483 23.954483 0 0 0 22.197821 16.768137 22.836607 22.836607 0 0 0 21.399338-14.212993 24.114179 24.114179 0 0 0-4.471504-25.711144 15.969655 15.969655 0 0 0-15.969655-4.152111 16.927834 16.927834 0 0 0-11.657848 11.498152c-0.958179 3.193931 1.916359-3.193931 0 0s2.714841-2.874538 0 0l1.596965-1.117876 1.916359-0.958179a9.901186 9.901186 0 0 1 4.311807 0q2.395448 0 0 0l2.555145 1.117876c2.235752 2.076055 2.714841 2.395448 1.596965 1.117876a12.136938 12.136938 0 0 1 1.756662 14.372689L414.528572 942.235366c-2.235752 1.596966-2.874538 2.076055-1.756663 1.437269s0-0.798483-5.908772 1.437269h1.596966a15.969655 15.969655 0 0 0 13.574206-7.825132 15.969655 15.969655 0 0 0 0-15.969655 18.844193 18.844193 0 0 0-15.969655-8.943007 20.920248 20.920248 0 0 0-15.171172 7.026649 22.197821 22.197821 0 0 0 0 30.342345 24.433572 24.433572 0 0 0 24.593269 6.068468 27.946897 27.946897 0 0 0 18.04571-19.642675l-28.266289 6.068469a11.019062 11.019062 0 0 1-2.714842-4.790897v-2.235752c0-3.034234 0.798483-3.832717 0-2.235751 0-0.798483 0-1.596966 1.117876-2.555145-0.798483 1.437269 0 0.958179 1.277572-1.437269a10.859366 10.859366 0 0 1 4.6312-2.874538 11.657848 11.657848 0 0 1 5.749076 0c-1.117876 0-1.117876 0 0 0a9.102703 9.102703 0 0 1 3.353628 2.076055c-1.117876-1.277572-0.798483 0 1.117876 1.596966a10.380276 10.380276 0 0 1 0 9.422096c0 1.117876-3.513324 4.6312-0.95818 2.235752a19.482979 19.482979 0 0 0 4.790897-13.095117l-9.2624 12.456331c2.235752 0-2.874538 0 0 0a12.456331 12.456331 0 0 0 11.657848-8.943007 13.733903 13.733903 0 0 0-5.749076-14.212993z" fill="#91000A" p-id="39806"></path><path d="M184.405841 963.475007a476.215117 476.215117 0 0 0-67.391945 22.357517C159.014089 939.360828 220.177868 871.010704 254.83202 824.539007c20.121766-26.030538 41.042014-42.000193 26.829021-50.144717a36.091421 36.091421 0 0 1 0-62.281655c22.67691-14.37269 8.144524-35.292938-5.269987-50.783504a27.148414 27.148414 0 0 1 3.992414-41.361407c18.04571-14.053297 30.342345-19.962069 103.004276 41.521104 50.304414 42.798676 122.966345 57.490759 162.571089 62.441352a83.042207 83.042207 0 0 1-6.068468 54.456524c-23.794786 46.152303-38.486869 47.908965-70.745573 45.513517 0 0-31.93931 86.076441-105.878814 31.140827l-2.555144-2.076055c-31.93931 38.486869-88.47189 105.559421-88.47189 105.559421a201.696745 201.696745 0 0 0-87.833103 4.950593z" fill="#FFFFFF" p-id="39807"></path><path d="M254.83202 777.109131c-51.741683-56.692276 14.851779-86.555531 14.851779-86.555531-23.794786-17.726317-57.810152-54.137131-12.456331-106.03851a70.745572 70.745572 0 0 1 95.817931-15.969655c12.935421-3.992414 170.076827 51.42229 186.365876 131.270565a104.601241 104.601241 0 0 1 7.665434 24.752966c-39.604745-4.950593-111.787586-19.642676-162.571089-62.441352-72.661931-61.323476-84.958565-55.734097-103.004276-41.521103a27.148414 27.148414 0 0 0-3.992414 41.361407c13.41451 15.969655 27.7872 36.410814 5.269986 50.783503a36.091421 36.091421 0 0 0 0 62.281655c14.212993 8.78331-6.866952 23.794786-26.509627 49.985021-34.973545 46.471697-95.817931 114.981517-138.137517 161.453213a583.5312 583.5312 0 0 0-62.441352 29.064773L254.83202 777.109131z" fill="#D3D3D3" p-id="39808"></path><path d="M270.801675 801.542704a8.78331 8.78331 0 0 1-5.269986-1.916359 181.734676 181.734676 0 0 1-17.726317-15.969655 63.878621 63.878621 0 0 1-20.760552-56.372883A62.281655 62.281655 0 0 1 254.83202 689.435724a77.133434 77.133434 0 0 1-28.26629-49.026841 81.604938 81.604938 0 0 1 23.954483-61.323476 79.848276 79.848276 0 0 1 72.182841-30.502041 79.848276 79.848276 0 0 1 34.334759 12.616027 8.463917 8.463917 0 0 1-9.422097 13.8936 62.281655 62.281655 0 0 0-84.319779 15.011476 63.878621 63.878621 0 0 0-19.802372 47.908966 68.509821 68.509821 0 0 0 30.981131 45.194124 8.304221 8.304221 0 0 1 3.353627 7.665434 8.78331 8.78331 0 0 1-4.790896 6.707256 54.616221 54.616221 0 0 0-29.064773 31.93931 49.026841 49.026841 0 0 0 15.969656 41.521103 186.046483 186.046483 0 0 0 15.969655 15.969655 7.984828 7.984828 0 0 1 1.117876 11.657849 8.943007 8.943007 0 0 1-6.228166 2.874538z m138.45691 79.848275a86.236138 86.236138 0 0 1-51.102896-19.003889 7.984828 7.984828 0 0 1-1.596966-11.657848 8.144524 8.144524 0 0 1 11.657849-1.756663 61.004083 61.004083 0 0 0 52.859558 15.171173c26.988717-7.984828 40.083834-42.000193 40.243531-42.479283a8.78331 8.78331 0 0 1 8.463917-5.429683c28.26629 1.916359 40.083834 2.555145 62.601049-41.042013a76.175255 76.175255 0 0 0 5.429682-48.867145 108.274262 108.274262 0 0 0-7.026648-23.63509 8.304221 8.304221 0 0 1 15.011476-7.346041 106.836993 106.836993 0 0 1 8.463917 26.82902 92.304607 92.304607 0 0 1-7.026648 60.365297c-23.63509 45.673214-40.403228 51.741683-72.821628 50.304414a87.194317 87.194317 0 0 1-48.707448 46.950786 63.878621 63.878621 0 0 1-15.969655 2.235752z" fill="#91000A" p-id="39809"></path><path d="M55.530724 1024A8.463917 8.463917 0 0 1 50.260737 1022.083641a8.304221 8.304221 0 0 1-1.117876-11.817544l198.662511-238.426952a8.463917 8.463917 0 0 1 11.498151-1.437269 8.623614 8.623614 0 0 1 1.756662 11.817545L62.078282 1020.806069a9.2624 9.2624 0 0 1-6.547558 3.193931z m118.335144-38.806262a8.463917 8.463917 0 0 1-6.547558-13.574207l122.167862-156.342924a8.304221 8.304221 0 1 1 13.095117 10.380276l-122.167862 156.342924a8.144524 8.144524 0 0 1-6.547559 3.193931z m98.21338-18.205407a9.74149 9.74149 0 0 1-5.429683-1.916359 8.463917 8.463917 0 0 1-0.95818-11.977241l88.47189-105.559421c18.04571-21.559034 20.920248-25.232055 21.399338-25.551448a8.463917 8.463917 0 0 1 13.41451 10.060883s-1.117876 1.596966-22.038124 26.349931l-88.471889 105.559421a7.984828 7.984828 0 0 1-6.387862 3.034234z" fill="#91000A" p-id="39810"></path><path d="M315.197316 706.203862A69.148607 69.148607 0 0 0 350.649951 668.35578" fill="#FFFFFF" p-id="39811"></path><path d="M315.197316 714.66778a8.623614 8.623614 0 0 1-7.825131-5.429683 8.304221 8.304221 0 0 1 4.6312-10.859366 61.642869 61.642869 0 0 0 31.939311-32.897489 8.623614 8.623614 0 0 1 10.859365-5.11029 8.463917 8.463917 0 0 1 4.950593 10.859366A77.612524 77.612524 0 0 1 318.710641 714.028993a9.2624 9.2624 0 0 1-3.034235 0z" fill="#91000A" p-id="39812"></path><path d="M317.273372 727.922593s31.93931-45.194124 51.102896-50.46411" fill="#FFFFFF" p-id="39813"></path><path d="M317.273372 736.226814a9.74149 9.74149 0 0 1-4.950593-1.596965 8.78331 8.78331 0 0 1-1.916359-11.817545c5.589379-7.984828 34.813848-47.908965 55.734096-53.658042a8.623614 8.623614 0 0 1 10.380276 5.908773 8.463917 8.463917 0 0 1-5.908772 10.380276c-11.019062 3.034234-33.855669 29.384165-46.471697 47.908965a8.304221 8.304221 0 0 1-6.866951 3.353628z" fill="#91000A" p-id="39814"></path><path d="M385.304103 688.317849a246.411779 246.411779 0 0 0-36.410814 43.597158" fill="#FFFFFF" p-id="39815"></path><path d="M348.893289 740.378924a8.623614 8.623614 0 0 1-3.353628 0 8.304221 8.304221 0 0 1-4.15211-11.019062 239.544827 239.544827 0 0 1 38.167476-46.152303 8.463917 8.463917 0 0 1 11.977241 0 8.304221 8.304221 0 0 1 0 11.817545 223.575172 223.575172 0 0 0-34.654152 41.042013 8.78331 8.78331 0 0 1-7.825131 4.950594z" fill="#91000A" p-id="39816"></path><path d="M430.498227 711.473849a157.301103 157.301103 0 0 1 35.772027 11.338455" fill="#FFFFFF" p-id="39817"></path><path d="M466.270254 731.276221a8.304221 8.304221 0 0 1-5.749076-2.235752 188.761324 188.761324 0 0 0-31.93931-9.2624 8.463917 8.463917 0 0 1-6.547559-9.901186 8.623614 8.623614 0 0 1 10.060883-6.547559 96.935807 96.935807 0 0 1 39.924138 13.8936 8.463917 8.463917 0 0 1 0 11.977242 9.74149 9.74149 0 0 1-5.749076 2.076055z" fill="#91000A" p-id="39818"></path><path d="M426.825206 736.067117a84.319779 84.319779 0 0 1 31.93931 9.74149" fill="#FFFFFF" p-id="39819"></path><path d="M458.12573 754.112828a8.943007 8.943007 0 0 1-6.228165-2.714842 94.220965 94.220965 0 0 0-26.349931-7.186344 8.304221 8.304221 0 0 1-7.186345-9.422097 8.623614 8.623614 0 0 1 9.581793-7.186345 79.848276 79.848276 0 0 1 36.251117 12.296635 8.463917 8.463917 0 0 1 0 11.977241 8.943007 8.943007 0 0 1-6.068469 2.235752zM404.467689 783.496993a7.825131 7.825131 0 0 0 0-15.969655 7.825131 7.825131 0 0 0 0 15.969655zM339.790585 791.162428a11.977241 11.977241 0 0 0 0-23.794786 11.977241 11.977241 0 0 0 0 23.794786z" fill="#91000A" p-id="39820"></path><path d="M937.854171 315.426401A902.764606 902.764606 0 0 1 802.271799 495.085021c-76.015559 81.764634-123.605131 130.472083-155.704138 159.696552-21.399338 7.186345-100.928221 26.829021-194.191007-42.958373a218.943972 218.943972 0 0 1-81.445241-106.198206c6.068469-33.057186 26.349931-72.981324 60.2056-130.63178 66.912855-113.384552 146.122345-218.624579 187.643448-255.514482 12.935421 34.654152 42.479283 83.3616 108.274262 132.548138 107.954869 80.646759 191.476165 67.391945 210.799448 63.399531z" fill="#FF2B3F" p-id="39821"></path><path d="M968.515909 225.038152a222.2976 222.2976 0 0 1-30.661738 90.388249c-19.323283 4.471503-102.844579 17.247228-210.639751-63.878621-65.954676-49.346234-95.817931-98.053683-108.274262-132.548138a56.851972 56.851972 0 0 1 20.920248-13.733903c28.106593-6.068469 15.969655 38.167476 164.647145 124.243917 97.893986 56.532579 143.726896 23.475393 164.008358-4.950593z" fill="#FFEB00" p-id="39822"></path><path d="M968.515909 225.038152c-19.802372 28.26629-66.114372 61.483172-164.008358 4.950593-148.996883-86.236138-136.380855-130.312386-164.647145-124.243917a59.087724 59.087724 0 0 0-20.920248 13.733904 132.707834 132.707834 0 0 1-10.22058-49.346235L606.164433 68.056442C671.799716 3.698732 706.613564 9.128415 706.613564 9.128415a30.502041 30.502041 0 0 0-19.003889 10.859365C666.849123 47.934677 710.925371 117.562373 786.46184 174.094952s154.107172 79.848276 175.666207 51.102897a31.93931 31.93931 0 0 0 5.429683-19.802372 74.258896 74.258896 0 0 1 0.958179 19.642675z" fill="#FFC500" p-id="39823"></path><path d="M646.567661 654.781573a352.130896 352.130896 0 0 1-35.133241 29.064772c-42.000193 5.749076-125.681186 7.665434-183.491338-51.581986-46.79109-47.908965-65.635283-79.848276-57.011669-126.479669a218.784276 218.784276 0 0 0 81.445241 106.198207c93.262786 69.468 172.631972 49.825324 194.191007 42.798676z m320.351283-449.386096a29.543862 29.543862 0 0 1-5.429683 19.802372c-21.079945 28.26629-99.650648 5.429683-175.666207-51.102897s-119.612717-125.361793-98.532772-153.787779A30.981131 30.981131 0 0 1 706.773261 9.447808l61.642869 45.992607c-14.851779-4.15211-25.870841-3.513324-30.342345 2.555144-11.019062 14.532386 19.163586 55.255007 67.072552 91.186731s95.817931 53.019255 106.357903 38.486869c4.6312-6.228166 1.916359-16.768138-6.387862-29.863255l61.004083 45.673214 0.798483 1.916359z" fill="#FFEB00" p-id="39824"></path><path d="M966.918944 205.395477a17.726317 17.726317 0 0 0-0.798483-2.076056l-61.004083-45.673213A251.841462 251.841462 0 0 0 844.431688 95.843642a257.430841 257.430841 0 0 0-75.855862-41.042014L706.932958 9.447808c33.376579-6.866952 95.817931 15.969655 156.183227 61.962262s102.205793 100.289434 103.802759 133.985407z" fill="#FFEB00" p-id="39825"></path><path d="M427.943082 632.104662c57.810152 59.247421 141.491145 57.331062 183.491338 51.581987a87.51371 87.51371 0 0 1-49.825324 17.886013 195.149186 195.149186 0 0 1-110.350318-25.232055 19.163586 19.163586 0 0 1-3.353627-2.076055l-21.878428-14.851779a207.605517 207.605517 0 0 1-83.042207-121.36938c-3.193931-22.67691-9.102703-31.93931 19.962069-92.623999a156.98171 156.98171 0 0 0 8.144524 60.045903c-8.78331 46.152303 9.901186 78.890096 56.851973 126.639365zM905.116378 157.646208c8.144524 13.095117 10.859366 23.794786 6.387862 29.863255-11.019062 14.532386-58.608634-2.874538-106.357903-38.486869s-78.091614-76.654345-67.072552-91.186731c4.6312-6.068469 15.969655-6.547559 30.342345-2.395448zM905.116378 157.646208l-136.700248-102.205793A253.75782 253.75782 0 0 1 844.271992 95.843642a255.514483 255.514483 0 0 1 60.844386 61.802566z" fill="#FFC500" p-id="39826"></path><path d="M370.931413 505.624994a157.301103 157.301103 0 0 1-8.144524-60.045904c18.684497-38.965959 52.220772-98.852165 110.350317-196.746151A906.27793 906.27793 0 0 1 606.164433 68.056442l1.916359 2.076055a137.019641 137.019641 0 0 0 10.220579 49.346235c-41.521103 36.889903-120.89029 142.129931-187.643448 255.514482-33.376579 57.650455-53.658041 97.574593-59.72651 130.63178z" fill="#D8000F" p-id="39827"></path><path d="M547.715496 710.835062a217.985793 217.985793 0 0 1-100.449131-26.988717l-3.992414-2.555145-22.357517-15.011476a215.430648 215.430648 0 0 1-86.236138-126.958758c0-2.235752-0.798483-4.311807-0.95818-6.387862-3.193931-19.163586-5.589379-34.494455 21.718731-91.027035 19.323283-40.083834 54.456524-103.004276 110.669711-197.384937a912.346399 912.346399 0 0 1 134.624193-182.373462C666.849123-3.487613 703.739026 0.025711 707.73144 0.824194l-2.555145 15.969655s-32.578097-2.076055-92.623999 57.171366a911.38822 911.38822 0 0 0-132.228745 179.019834c-55.893793 94.061269-90.867338 156.342924-110.030924 196.107365-25.072359 51.741683-22.836607 63.878621-20.281462 80.966152 0 2.235752 0.798483 4.471503 1.117876 6.866952a201.696745 201.696745 0 0 0 79.848275 115.620303l21.718731 14.692083 2.714842 1.756662c19.802372 10.699669 67.551641 29.863255 105.080331 24.114179h6.707255a70.106786 70.106786 0 0 0 39.445048-15.969655 362.511172 362.511172 0 0 0 34.494455-28.585683c32.89749-29.863255 82.084028-80.646759 155.065352-159.696551a917.935779 917.935779 0 0 0 134.145103-177.422869 212.715807 212.715807 0 0 0 29.543862-86.874924 61.802565 61.802565 0 0 0-1.277572-16.927835 8.463917 8.463917 0 0 1 15.969655-4.6312 63.878621 63.878621 0 0 1 1.916359 22.357517 229.963034 229.963034 0 0 1-31.939311 93.901573 924.323641 924.323641 0 0 1-136.859944 181.095889c-73.300717 79.049793-122.966345 129.992993-156.023531 159.696552a374.009324 374.009324 0 0 1-36.251118 29.863255 87.833103 87.833103 0 0 1-46.950786 18.5248l-6.387862 0.798483a94.859752 94.859752 0 0 1-14.851779 0.958179z" fill="#91000A" p-id="39828"></path><path d="M929.709647 245.798704A141.171752 141.171752 0 0 1 892.021261 239.570539a368.260248 368.260248 0 0 1-110.190621-58.608635 371.613876 371.613876 0 0 1-87.673407-89.589765C673.077289 59.113435 668.605785 31.965021 681.062116 15.995366A37.52869 37.52869 0 0 1 705.176295 1.303284c36.410814-7.505738 102.046096 17.886014 162.890483 63.87862s105.399724 103.004276 107.156386 140.373269a37.209297 37.209297 0 0 1-6.866952 25.072359 46.471697 46.471697 0 0 1-38.646565 15.969655zM719.548985 15.995366a58.928028 58.928028 0 0 0-11.019062 0.95818 21.399338 21.399338 0 0 0-14.053297 7.825131c-15.969655 21.079945 20.121766 84.479476 96.935807 141.970234s147.71931 73.779807 163.369573 52.699862a20.920248 20.920248 0 0 0 3.67302-14.212993c-1.596966-31.93931-42.798676-84.639172-100.449131-127.757241C807.541785 40.588635 753.085261 15.995366 719.548985 15.995366z" fill="#91000A" p-id="39829"></path><path d="M568.955137 309.996718s-7.346041 0-7.346041-0.798483 1.916359 1.117876 2.076055 1.117876a6.068469 6.068469 0 0 1-2.395449-3.193931 5.589379 5.589379 0 0 1-1.437269-5.749076 10.859366 10.859366 0 0 1 0.95818-5.908772l5.749076-5.749076a17.406924 17.406924 0 0 1 4.471503-2.235752h1.916359a9.2624 9.2624 0 0 0-2.874538 0l2.235752 0.958179a1.596966 1.596966 0 0 1-0.798483 0 12.296634 12.296634 0 0 1 4.15211 16.768138 11.977241 11.977241 0 0 1-3.992414 3.992414l-1.916358 0.798483a9.581793 9.581793 0 0 1-8.144524-0.95818l1.437269 0.798483c-2.076055-1.596966-2.555145-2.076055-1.277573-0.798483a20.600855 20.600855 0 0 1 2.555145 2.714842V287.479504l-1.117876 0.958179 1.437269-0.958179a3.832717 3.832717 0 0 0-1.756662 0.958179c1.596966-1.596966 5.749076-1.277572 7.505738-0.798482a11.977241 11.977241 0 0 1 5.589379 4.15211 10.859366 10.859366 0 0 1 2.235752 7.026648c-1.277572 3.034234-2.714841 6.068469-3.992414 9.2624a12.935421 12.935421 0 0 1-14.851779 3.034235 15.969655 15.969655 0 0 1-5.589379-4.790897c2.076055 2.555145-1.277572 3.513324-1.277573-5.429683a15.969655 15.969655 0 0 0 9.74149 14.212993 15.969655 15.969655 0 0 0 17.087531-3.193931 18.844193 18.844193 0 0 0-4.790897-30.022951 19.802372 19.802372 0 0 0-28.905076 11.977241 22.357517 22.357517 0 0 0 15.011476 25.551448 28.26629 28.26629 0 0 0 26.988717-8.623613 16.927834 16.927834 0 0 0 0-23.475394 30.821434 30.821434 0 0 0-14.372689-9.741489 22.836607 22.836607 0 0 0-19.00389 2.714841 20.760552 20.760552 0 0 0 3.992414 37.688386 33.855669 33.855669 0 0 0 13.733903 2.555145 19.482979 19.482979 0 0 0 19.163587-19.003889 19.962069 19.962069 0 0 0-15.011476-18.684497 19.323283 19.323283 0 0 0-21.718731 7.984828 13.733903 13.733903 0 0 0 2.076055 15.969655 14.212993 14.212993 0 0 0 12.616027 3.034234z m-55.09531 31.93931a115.460607 115.460607 0 0 1 35.612331 14.532386c3.034234 2.395448 6.866952 6.228166 5.749075 10.539973s-7.026648 7.665434-11.338455 8.943007a162.251696 162.251696 0 0 1-41.361407 3.67302h-23.635089c-7.665434 0-15.969655-1.117876-21.559035 6.707255a9.74149 9.74149 0 0 0 0 9.102704c5.11029 9.901186 19.323283 7.984828 28.425987 8.144524s21.239641 0 31.93931 0c17.726317-1.117876 39.764441-1.437269 52.380469-15.969655a31.93931 31.93931 0 0 0-4.950593-46.152304A83.84069 83.84069 0 0 0 542.285813 329.000607a44.235945 44.235945 0 0 0-28.585683-2.874537 8.304221 8.304221 0 0 0 0 15.969655z m20.441158 83.680993a24.752965 24.752965 0 0 0 0-4.950593l-1.437269 10.859366a9.102703 9.102703 0 0 0 1.756662-3.992414v-4.152111a15.969655 15.969655 0 0 0-4.6312-11.338455 15.969655 15.969655 0 0 0-6.866951-4.15211h-4.311807a15.011476 15.011476 0 0 0-8.144524 2.235752 15.969655 15.969655 0 0 0-7.186345 9.422096 15.969655 15.969655 0 0 0 0 6.547559 13.574207 13.574207 0 0 0 1.916358 5.908772 13.8936 13.8936 0 0 0 4.152111 4.471504 12.456331 12.456331 0 0 0 5.429682 2.714841 10.859366 10.859366 0 0 0 6.387863 0 12.935421 12.935421 0 0 0 5.908772-1.916359 10.380276 10.380276 0 0 0 3.513324-2.874538l-13.733903 3.673021-3.193931-1.437269a13.41451 13.41451 0 0 0 13.41451 0 13.095117 13.095117 0 0 0 6.387862-11.338455z" fill="#FFEB00" p-id="39830"></path><path d="M495.17533 400.704359a45.034428 45.034428 0 0 0-14.053296 13.41451c-4.6312 5.589379-9.2624 11.338455-13.574207 17.087531-7.026648 9.422097-20.760552 24.752965-14.37269 37.0496a8.78331 8.78331 0 0 0 7.825131 4.471504c7.984828 0 11.498152-6.068469 15.969655-11.977241s7.825131-11.498152 11.817545-17.087532a86.715228 86.715228 0 0 0 19.642676-35.452634c0.798483-7.346041-7.825131-9.901186-13.254814-7.505738z m138.297214-50.783503a62.760745 62.760745 0 0 0 20.760551 14.692082c7.505738 4.471503 15.011476 9.102703 22.357518 13.8936s13.8936 9.581793 20.441158 14.532387 14.053297 14.053297 23.315697 14.212993a10.060883 10.060883 0 0 0 9.581793-12.616028c-1.916359-8.943007-12.775724-14.37269-19.802372-19.482979s-14.37269-10.060883-21.718731-14.692083-15.011476-9.102703-22.676911-13.254814a60.524993 60.524993 0 0 0-25.391752-9.741489 8.304221 8.304221 0 0 0-6.866951 12.456331z m-8.623614 19.323282c-10.220579-2.555145-19.00389 10.380276-23.794786 17.566621s-14.692083 21.399338-4.790897 29.703559c5.589379 4.6312 17.247228 4.15211 18.5248-4.950593 0 0 0.958179-5.908772 0-5.908773v3.034235a30.661738 30.661738 0 0 1 1.916359-3.992414c2.076055-4.15211 4.471503-8.304221 6.866952-12.456331s13.254814-20.121766 1.756662-22.996304z" fill="#FFEB00" p-id="39831"></path><path d="M616.544709 387.289849a159.696552 159.696552 0 0 0 15.011476 6.707255 141.810538 141.810538 0 0 1 14.37269 7.984828 116.578483 116.578483 0 0 1 26.190234 20.600855c2.235752 2.714841 5.908772 6.707255 3.992414 10.380276s-5.749076 2.874538-8.623614 3.034234c-9.581793 1.117876-24.433572-1.117876-24.433572 12.616028a11.977241 11.977241 0 0 0 5.908772 10.539972 35.452634 35.452634 0 0 0 19.962069 1.756662 41.840497 41.840497 0 0 0 19.48298-5.749076 29.224469 29.224469 0 0 0 6.866951-39.924138 103.004276 103.004276 0 0 0-31.93931-28.106593 132.228745 132.228745 0 0 0-20.121766-10.220579 57.490759 57.490759 0 0 0-21.079944-6.547559 9.581793 9.581793 0 0 0-8.144525 4.6312v0.95818a8.463917 8.463917 0 0 0 3.034235 11.338455z" fill="#FFEB00" p-id="39832"></path><path d="M596.58264 410.126456c-1.117876 11.338455 11.019062 19.163586 19.00389 24.912662s19.00389 12.935421 28.26629 19.642676c11.657848 8.463917 23.63509-11.338455 11.498151-19.802373-15.969655-10.539972-31.93931-20.441159-47.908965-31.93931-4.471503-3.673021-10.220579 2.076055-10.859366 7.186345z m-28.745379 13.574207a99.810345 99.810345 0 0 0-38.327172 31.93931 91.825517 91.825517 0 0 0-12.456331 20.760552c-3.353628 7.825131-8.144524 18.844193-3.034235 26.82902a9.581793 9.581793 0 0 0 14.851779 1.916359c5.429683-5.11029 5.269986-13.733903 7.825132-20.281462a98.852165 98.852165 0 0 1 10.380275-18.365104c8.463917-11.977241 20.760552-20.600855 29.224469-31.93931a7.505738 7.505738 0 0 0-8.463917-10.859365z" fill="#FFEB00" p-id="39833"></path><path d="M563.206061 447.176056c17.087531-2.076055 33.216883 11.498152 45.673214 21.878427s27.148414 21.239641 26.349931 38.007779a31.93931 31.93931 0 0 1-21.559035 26.988718 84.479476 84.479476 0 0 1-21.559034 4.950593 26.988717 26.988717 0 0 1-20.600855-4.6312 13.574207 13.574207 0 0 0-18.365104 18.365103c11.817545 18.5248 35.931724 15.969655 54.775918 12.296635a72.023145 72.023145 0 0 0 43.916551-28.425986 53.658041 53.658041 0 0 0 3.193931-52.540166 122.008165 122.008165 0 0 0-41.361407-41.361407c-13.41451-9.581793-49.825324-31.93931-59.72651-7.186345a9.74149 9.74149 0 0 0 9.2624 11.657849z" fill="#FFEB00" p-id="39834"></path><path d="M545.958833 473.525987a54.137131 54.137131 0 0 0 19.642676 25.870841 86.395834 86.395834 0 0 0 28.74538 18.844193 11.338455 11.338455 0 0 0 11.338455-3.034234 13.733903 13.733903 0 0 0 3.193931-5.269987 11.498152 11.498152 0 0 0-3.193931-11.498151c-7.825131-6.707255-17.406924-11.338455-25.551448-17.566621a100.289434 100.289434 0 0 0-23.954483-17.726317c-6.228166-2.555145-11.498152 4.471503-10.22058 9.901186z" fill="#FFEB00" p-id="39835"></path><path d="M585.563578 466.978428c-5.749076 6.547559-11.498152 13.095117-17.56662 19.323283s-15.969655 11.657848-18.844193 19.003889a11.657848 11.657848 0 0 0 12.93542 16.927835 52.699862 52.699862 0 0 0 22.197821-19.642676 107.795172 107.795172 0 0 0 15.969655-24.912662c3.353628-8.463917-6.866952-19.00389-14.053297-10.699669z" fill="#FFEB00" p-id="39836"></path><path d="M508.909234 502.910152c-1.277572 15.969655 13.41451 30.022952 24.433572 39.125655 6.387862 5.11029 13.095117 10.060883 19.962069 14.692083a58.129545 58.129545 0 0 0 20.760552 10.539972 7.984828 7.984828 0 0 0 9.581793-9.741489c-4.471503-14.053297-19.802372-22.357517-30.821435-30.821435a146.601434 146.601434 0 0 1-14.851779-13.254813 110.350317 110.350317 0 0 1-10.539972-15.969656 10.060883 10.060883 0 0 0-18.5248 5.429683z m207.605517-223.575172l-2.555145-3.353628a15.969655 15.969655 0 0 0-5.429683-3.353627 6.866952 6.866952 0 0 0-1.916359-0.798483H697.031771a18.684497 18.684497 0 0 0-4.471503 1.756662l-1.756662 1.437269s-1.277572 0.798483-1.756662 1.596966l-2.555145 3.353627-1.596966 3.992414a22.836607 22.836607 0 0 0 0 2.555145 13.41451 13.41451 0 0 0 0 7.026648 44.235945 44.235945 0 0 0 1.596966 4.15211l1.596965 2.235752 1.596966 2.076055 3.513324 2.714842a14.532386 14.532386 0 0 0 2.235752 1.117875l2.235752 0.95818a24.752965 24.752965 0 0 0 4.950593 0h4.6312a15.969655 15.969655 0 0 0 4.471503-2.076055l3.353628-2.555145a12.935421 12.935421 0 0 0 3.353627-5.429683 8.943007 8.943007 0 0 0 1.117876-4.15211 13.095117 13.095117 0 0 0-1.596965-5.11029c0-1.277572-1.117876-2.714841-1.756662-3.992414l-2.555145-3.353627a11.977241 11.977241 0 0 0-5.429683-3.353628 13.8936 13.8936 0 0 0-6.387862-1.437269h4.311807l3.832717 1.756662 3.353628 2.555145 2.555144 3.353628c0 4.15211 1.117876 8.463917 1.596966 12.775724l-1.596966 3.832717-2.555144 3.353628-3.353628 2.395448-3.992414 1.596965 3.832717-1.596965a10.060883 10.060883 0 0 0 4.6312-4.311807 7.984828 7.984828 0 0 0 2.076056-3.513324 11.338455 11.338455 0 0 0 1.437269-6.387862v-4.311807c0-1.277572-1.117876-2.714841-1.756662-3.832717a10.699669 10.699669 0 0 0-4.152111-4.6312 14.692083 14.692083 0 0 0-5.589379-3.034235 18.844193 18.844193 0 0 0-8.943007 0 13.254814 13.254814 0 0 0-4.311807 1.916359 17.247228 17.247228 0 0 0-8.463917 14.532386 15.969655 15.969655 0 0 0 2.395448 8.623614 17.406924 17.406924 0 0 0 6.068469 6.228165 18.844193 18.844193 0 0 0 9.422097 2.555145l-11.657849-28.26629 3.353628-2.555144 3.992414-1.596966h8.78331l3.992414 1.596966 3.353627 2.555144 2.395449 3.353628 1.596965 3.992414v8.623614c0 1.437269 0 0 0 0l-1.596965 3.992413-2.395449 3.353628-3.353627 2.555145-3.992414 1.756662h-8.623614a13.095117 13.095117 0 0 0 6.547559 0 8.943007 8.943007 0 0 0 4.15211-1.117876 6.068469 6.068469 0 0 0 2.076055-0.958179 12.775724 12.775724 0 0 0 4.6312-4.152111 11.977241 11.977241 0 0 0 2.874538-5.429682v-4.311807a14.37269 14.37269 0 0 0-1.916358-8.783311zM477.289316 595.693849h2.076055a11.817545 11.817545 0 0 0 6.228166-1.277573 17.247228 17.247228 0 0 0 5.429683-3.353627l2.555145-3.353628a14.212993 14.212993 0 0 0 1.916358-6.068469 9.74149 9.74149 0 0 0 0-4.311807 12.935421 12.935421 0 0 0-1.916358-6.068469l-2.555145-3.353627a18.04571 18.04571 0 0 0-7.186345-4.152111h-8.943007l-3.992414 1.596966a19.163586 19.163586 0 0 0-3.353627 2.714841 30.821434 30.821434 0 0 0-2.714842 3.353628L462.437537 574.933297a19.962069 19.962069 0 0 0 0 2.395448v8.943007a11.178759 11.178759 0 0 0 2.076055 3.832717 9.901186 9.901186 0 0 0 1.437269 1.756662l3.353628 2.714842 3.992414 1.596965c-3.992414-5.269986-8.144524-10.539972-11.977242-15.969655v-4.311807a43.437462 43.437462 0 0 0 1.756662-3.992414l2.555145-3.353627 3.353628-2.395448 3.832717-1.596966h8.78331l3.832717 1.596966c2.874538 4.790897 5.429683 9.581793 8.304221 14.532386v-4.6312a1.437269 1.437269 0 0 0 0-0.798483v-1.756662a12.456331 12.456331 0 0 0-2.874538-5.589379 13.41451 13.41451 0 0 0-4.6312-4.311807 12.456331 12.456331 0 0 0-7.825131 0.159696 10.220579 10.220579 0 0 0-6.547558 0l-3.832718 1.596966a16.927834 16.927834 0 0 0-6.068469 6.068469l-1.756662 3.832717a15.969655 15.969655 0 0 0 0 8.78331c0 1.117876 0 1.916359 0.798483 2.874538v-4.471503 4.471503a12.456331 12.456331 0 0 0 2.874538 5.58938 7.505738 7.505738 0 0 0 3.034234 2.874538 11.178759 11.178759 0 0 0 5.58938 3.034234 19.482979 19.482979 0 0 0 9.581793 0 18.844193 18.844193 0 0 0 4.311807-1.916359l2.076055-1.596965 2.235752-1.596966 2.395448-3.353627a17.087531 17.087531 0 0 0 2.395448-9.2624 35.612331 35.612331 0 0 1 0-4.311807 14.692083 14.692083 0 0 0-3.034234-5.589379 6.228166 6.228166 0 0 0-2.874538-2.874538 14.692083 14.692083 0 0 0-5.58938-3.034235l3.832718 1.756662 3.353627 2.555145 2.555145 3.353628 1.596966 3.832717v8.623614c0 1.437269 0 0 0 0l-1.596966 3.832717-2.395448 3.353627-3.513324 2.555145-3.832718 1.756662h-4.311806c-3.673021-9.102703-7.665434-18.5248-11.498152-27.7872a6.228166 6.228166 0 0 0-1.277573 1.596966c-0.958179 0.958179-1.596966 2.076055-2.395448 3.034234s-0.958179 2.395448-1.596965 3.673021a30.342345 30.342345 0 0 0 0 3.992414 12.616028 12.616028 0 0 0 1.117876 5.908772 9.102703 9.102703 0 0 0 2.076055 3.353628 6.387862 6.387862 0 0 0 2.714841 2.714841 7.346041 7.346041 0 0 0 3.353628 2.076055 14.532386 14.532386 0 0 0 6.228165 1.277573z m371.933269-231.400304h-1.277572a259.666593 259.666593 0 0 1-105.719118-35.772027 7.026648 7.026648 0 1 1 6.866952-12.296635 239.544827 239.544827 0 0 0 100.449131 34.175062 7.186345 7.186345 0 0 1 7.186345 7.186345 7.186345 7.186345 0 0 1-7.186345 7.026648z m-191.635862-100.449131a7.505738 7.505738 0 0 1-4.471503-1.437269 238.107558 238.107558 0 0 1-67.232249-95.817931 7.026648 7.026648 0 1 1 13.574207-3.193931 224.693048 224.693048 0 0 0 62.601049 87.513711 7.026648 7.026648 0 0 1 0.958179 9.901186 7.186345 7.186345 0 0 1-5.429683 2.395448zM604.407771 638.811918a195.787972 195.787972 0 0 1-91.506124-23.63509 7.186345 7.186345 0 0 1-2.874538-9.581793 7.026648 7.026648 0 0 1 9.581793-2.714842 178.700441 178.700441 0 0 0 93.901573 21.559035 6.866952 6.866952 0 1 1 1.437269 13.733903 64.996497 64.996497 0 0 1-10.539973 0z m-165.285931-79.848276a6.866952 6.866952 0 0 1-4.6312-1.596966 171.194703 171.194703 0 0 1-50.144717-71.703751 7.026648 7.026648 0 1 1 13.254814-4.6312 159.696552 159.696552 0 0 0 46.152303 65.794979 6.866952 6.866952 0 0 1 0.798483 9.901186 8.144524 8.144524 0 0 1-5.429683 2.235752z" fill="#FFEB00" p-id="39837"></path></svg>