<?xml version="1.0" standalone="no"?><!DOCTYPE svg PUBLIC "-//W3C//DTD SVG 1.1//EN" "http://www.w3.org/Graphics/SVG/1.1/DTD/svg11.dtd"><svg t="1756800033647" class="icon" viewBox="0 0 1024 1024" version="1.1" xmlns="http://www.w3.org/2000/svg" p-id="5383" xmlns:xlink="http://www.w3.org/1999/xlink" width="200" height="200"><path d="M70.65952 698.88l28.416 268.768H928.03552l25.728-268.768z" fill="#0e932e" p-id="5384"></path><path d="M511.97152 12.8c142.432 0 258.24 115.84 258.24 258.24v35.392h141.408a112.48 112.48 0 0 1 111.84 123.776L974.75552 911.04a111.552 111.552 0 0 1-111.392 100.992H160.99552a112.032 112.032 0 0 1-111.776-100.864l-48.64-480.96A112.384 112.384 0 0 1 112.35552 306.432h141.344V271.04c0-142.4 115.84-258.24 258.272-258.24zM253.92352 376.992H112.61152a41.856 41.856 0 0 0-41.728 46.016l48.416 480.64a41.632 41.632 0 0 0 41.504 37.536H862.75552c21.728 0 39.584-16.128 41.76-37.504l48.128-475.712 0.96-4.96a41.856 41.856 0 0 0-41.6-46.016h-141.536v157.376a35.328 35.328 0 0 1-70.592 0v-157.376h-375.36v157.376a35.296 35.296 0 0 1-70.56 0v-157.376zM722.91552 799.264a35.328 35.328 0 0 1 0 70.592H301.02752a35.296 35.296 0 0 1 0-70.592H722.91552zM511.97152 82.944a187.904 187.904 0 0 0-187.68 187.68v35.328h375.36V270.624a187.872 187.872 0 0 0-187.68-187.68z" fill="#0e932e" p-id="5385"></path></svg>