<?xml version="1.0" standalone="no"?><!DOCTYPE svg PUBLIC "-//W3C//DTD SVG 1.1//EN" "http://www.w3.org/Graphics/SVG/1.1/DTD/svg11.dtd"><svg t="1756801183280" class="icon" viewBox="0 0 1024 1024" version="1.1" xmlns="http://www.w3.org/2000/svg" p-id="16125" xmlns:xlink="http://www.w3.org/1999/xlink" width="200" height="200"><path d="M211.48154 512.097005c0-33.183891 4.830566-65.291405 13.966637-95.456192L54.146842 281.411208A507.156963 507.156963 0 0 0 0.065501 510.338049c0 82.198388 19.296012 160.77385 53.766305 230.764557l171.4326-134.914569a326.850823 326.850823 0 0 1-13.782866-94.222297v0.131265z" fill="#FFB900" p-id="16126"></path><path d="M519.351387 203.99088a281.091708 281.091708 0 0 1 189.074669 77.18405l141.24156-147.279768C764.397618 50.567892 647.938964 0.004463 513.785734 0.004463A513.037653 513.037653 0 0 0 53.963071 281.279942l171.406347 135.045834c37.541902-124.387084 147.752324-215.800302 294.034475-212.466161v0.052506l-0.052506 0.052506z" fill="#FE2727" p-id="16127"></path><path d="M519.298881 819.678069c-146.623441 0-257.122647-89.733021-294.2445-213.805069L53.70054 740.603797c84.272381 171.275082 258.566567 290.280285 460.137701 283.086942 141.740369-4.988085 255.915006-49.014497 338.139646-124.570856l-165.788188-125.725991c-45.522837 31.136151-102.360752 46.336683-166.838312 46.336683l-0.052506-0.052506z" fill="#00AC47" p-id="16128"></path><path d="M508.193829 419.449892v196.556796h280.356621c-17.852093 72.143459-53.530026 124.282072-102.360751 157.781l165.709429 125.699738c97.346414-89.522996 149.747558-223.124911 149.747557-389.201883 0-30.978632-2.441536-61.353444-7.140837-90.835651" fill="#2485FC" p-id="16129"></path></svg>