<?xml version="1.0" standalone="no"?><!DOCTYPE svg PUBLIC "-//W3C//DTD SVG 1.1//EN" "http://www.w3.org/Graphics/SVG/1.1/DTD/svg11.dtd"><svg t="1756802567121" class="icon" viewBox="0 0 1024 1024" version="1.1" xmlns="http://www.w3.org/2000/svg" p-id="22333" xmlns:xlink="http://www.w3.org/1999/xlink" width="200" height="200"><path d="M74.482 15.148a60.275 60.275 0 0 1 71.61-5.226c196.642 109.71 391.944 221.82 587.528 333.295-54.52 55.825-110.521 110.274-164.97 166.17l-2.472 2.26C405.198 343.357 237.333 181.672 74.482 15.148z m0 0" fill="#0FF07E" p-id="22334"></path><path d="M53.437 136.651c0.212-40.713-5.932-87.322 21.186-121.538 162.851 166.523 330.752 328.21 491.696 496.499Q319.147 759.455 71.975 1007.616a166.7 166.7 0 0 1-18.856-84.745c0.494-262.073 0-524.111 0.282-786.185z m0 0" fill="#10CFFF" p-id="22335"></path><path d="M733.62 343.181c66.171 36.758 131.637 74.717 197.279 112.464a64.547 64.547 0 0 1 38.417 65.818c-6.78 28.248-34.11 43.185-57.344 56.497-59.745 31.779-117.23 68.007-176.763 100.352-55.367-56.497-112.993-110.91-166.559-168.925 54.449-55.86 110.45-110.345 164.97-166.17z m0 0" fill="#FFCA0A" p-id="22336"></path><path d="M566.178 511.612l2.472-2.26c53.672 58.015 111.157 112.463 166.524 168.924q-289.545 166.7-580.467 330.752a71.468 71.468 0 0 1-82.697-1.412q246.643-248.479 494.168-496.004z m0 0" fill="#FA3E4D" p-id="22337"></path></svg>