<?xml version="1.0" standalone="no"?><!DOCTYPE svg PUBLIC "-//W3C//DTD SVG 1.1//EN" "http://www.w3.org/Graphics/SVG/1.1/DTD/svg11.dtd"><svg t="1756800066974" class="icon" viewBox="0 0 1024 1024" version="1.1" xmlns="http://www.w3.org/2000/svg" p-id="6655" xmlns:xlink="http://www.w3.org/1999/xlink" width="200" height="200"><path d="M569.79456 307.42528c-5.092693-0.054613-10.24-0.054613-15.332693 0l-0.49152-21.838507c5.399893-0.18432 10.91584-0.18432 16.32256 0l-0.498347 21.838507z" fill="#0e932e" p-id="6656"></path><path d="M562.128213 634.784427c-87.784107 0-172.270933-15.080107-237.882026-42.45504-2.143573-0.894293-6.67648-3.618133-6.724267-10.594987l-0.006827-1.686187c-0.006827-1.426773-0.013653-3.467947-0.02048-5.91872-0.013653-4.887893-0.027307-11.400533-0.034133-17.913173l-0.04096-26.043733c0-63.95904 24.507733-124.450133 69.010773-170.345814 44.40064-45.79328 103.908693-72.157867 167.54688-74.24 0.075093 0 0.157013-0.006827 0.232107-0.006826 5.256533-0.06144 10.574507-0.06144 15.83104 0 0.075093 0 0.157013 0 0.232107 0.006826 63.645013 2.082133 123.14624 28.44672 167.54688 74.24 44.50304 45.89568 69.010773 106.386773 69.010773 170.33216v26.89024c0 20.186453-12.765867 38.188373-31.771307 44.796587-21.804373 7.584427-45.417813 13.98784-70.178133 19.0464-45.124267 9.216-93.156693 13.892267-142.752427 13.892267z m-222.78144-59.897174c62.03392 24.569173 140.793173 38.05184 222.78144 38.05184 48.128 0 94.685867-4.52608 138.38336-13.45536 23.81824-4.860587 46.482773-11.011413 67.3792-18.274986 10.226347-3.556693 17.1008-13.27104 17.1008-24.1664v-26.89024c0-58.238293-22.3232-113.329493-62.85312-155.122347-40.413867-41.6768-94.55616-65.686187-152.466773-67.611307-5.010773-0.054613-10.082987-0.054613-15.100587 0-57.910613 1.92512-112.052907 25.934507-152.466773 67.611307-40.52992 41.79968-62.85312 96.89088-62.85312 155.122347 0.034133 14.41792 0.068267 34.249387 0.095573 44.735146z m-6.751573-2.751146h0.006827c0 0.006827-0.006827 0.006827-0.006827 0z m-0.027307-0.006827c0.006827 0 0.006827 0 0.013654 0.006827 0 0-0.006827-0.006827-0.013654-0.006827z m-0.02048-0.006827c0.006827 0 0.006827 0.006827 0.013654 0.006827 0-0.006827-0.006827-0.006827-0.013654-0.006827z m-0.02048-0.013653c0.006827 0 0.006827 0.006827 0.013654 0.006827-0.006827 0-0.013653 0-0.013654-0.006827z m-0.027306-0.006827h0z" fill="#0e932e" p-id="6657"></path><path d="M515.590827 296.454827a46.769493 23.38816 0 1 0 93.538986 0 46.769493 23.38816 0 1 0-93.538986 0Z" fill="#0e932e" p-id="6658"></path><path d="M562.36032 330.765653c-14.158507 0-27.634347-2.839893-37.956267-8.000853-12.724907-6.362453-19.735893-15.70816-19.735893-26.303147s7.010987-19.940693 19.735893-26.303146c10.32192-5.16096 23.804587-8.000853 37.956267-8.000854s27.634347 2.839893 37.956267 8.000854c12.724907 6.362453 19.735893 15.70816 19.735893 26.303146s-7.010987 19.933867-19.735893 26.303147c-10.32192 5.16096-23.79776 8.000853-37.956267 8.000853z m0-46.769493c-23.524693 0-35.846827 9.25696-35.846827 12.465493 0 3.208533 12.32896 12.465493 35.846827 12.465494 23.524693 0 35.846827-9.25696 35.846827-12.465494 0-3.208533-12.322133-12.465493-35.846827-12.465493zM541.805227 761.842347a84.3776 84.3776 0 0 1-26.3168-4.205227c-58.108587-19.060053-126.60736-29.136213-198.089387-29.136213-27.047253 0-53.9648 1.460907-79.99488 4.34176a18.186923 18.186923 0 0 1-17.885867-9.181867 18.189653 18.189653 0 0 1 1.467734-20.0704l98.7136-127.863467 0.068266-0.088746 0.109227-0.136534c3.037867-3.843413 8.260267-5.20192 12.77952-3.31776 63.010133 26.289493 144.50688 40.768853 229.471573 40.768854 48.128 0 94.685867-4.52608 138.38336-13.45536 4.62848-0.948907 9.345707 1.194667 11.687254 5.311146a10.918571 10.918571 0 0 1-1.426774 12.752214l-12.51328 13.714773-94.317226 103.266987c-16.13824 17.67424-38.857387 27.29984-62.13632 27.29984z m-224.406187-55.1936c73.76896 0 144.622933 10.451627 204.9024 30.22848 23.340373 7.65952 49.056427 0.955733 65.51552-17.066667l85.142187-93.231787c-35.621547 5.44768-72.758613 8.205653-110.824107 8.205654-84.350293 0-165.655893-13.919573-230.099627-39.30112l-88.59648 114.756266c24.180053-2.382507 49.022293-3.590827 73.960107-3.590826z" fill="#0e932e" p-id="6659"></path><path d="M702.716587 621.110613c-0.49152 0-0.989867-0.034133-1.488214-0.1024-5.973333-0.812373-10.164907-6.321493-9.345706-12.294826 0.14336-1.04448 14.11072-105.39008 0.252586-158.446934-8.895147-34.065067-22.316373-60.37504-41.035093-80.431786-15.988053-17.14176-33.15712-26.897067-48.298667-35.51232-3.072-1.747627-5.973333-3.39968-8.8064-5.072214-5.188267-3.072-6.908587-9.76896-3.836586-14.964053 3.072-5.188267 9.775787-6.908587 14.964053-3.836587 2.669227 1.57696 5.48864 3.181227 8.47872 4.881067 15.68768 8.922453 35.211947 20.022613 53.47328 39.601493 21.251413 22.780587 36.365653 52.155733 46.196053 89.818454 14.9504 57.248427 0.86016 162.46784 0.252587 166.918826-0.744107 5.46816-5.434027 9.44128-10.806613 9.44128z" fill="#0e932e" p-id="6660"></path></svg>