<?xml version="1.0" standalone="no"?><!DOCTYPE svg PUBLIC "-//W3C//DTD SVG 1.1//EN" "http://www.w3.org/Graphics/SVG/1.1/DTD/svg11.dtd"><svg t="1756799980454" class="icon" viewBox="0 0 1024 1024" version="1.1" xmlns="http://www.w3.org/2000/svg" p-id="4214" xmlns:xlink="http://www.w3.org/1999/xlink" width="200" height="200"><path d="M877.568 193.536q20.48-5.12 33.28 8.192t20.992 31.744q9.216 18.432 23.04 61.44t17.92 106.496q4.096 62.464-4.608 96.256t-13.824 33.792q-3.072 0-14.336-1.024t-28.16-2.048-38.912-1.024-46.592 1.024q-9.216 0-30.208-0.512t-48.64 1.536-59.904 10.24-65.024 26.624q-37.888 21.504-65.024 38.912t-61.44 30.72-83.456 20.48-131.072 7.168q-47.104 0-88.064-2.56t-71.68-6.656q-35.84-4.096-67.584-10.24-11.264-14.336-18.432-31.744-6.144-14.336-8.704-34.304t5.632-42.496q7.168-19.456 21.504-32.256t32.768-19.456 39.936-7.68 43.008 1.024q44.032 5.12 84.48-4.608t75.776-26.624 65.024-38.912 53.248-43.52 38.4-41.472 24.064-36.864 14.336-31.232 8.192-23.552q8.192-22.528 25.088-30.72t37.376-2.048q32.768 10.24 73.216 13.312t92.672 1.024q27.648-1.024 46.592-3.584t31.744-5.12 21.504-5.12 15.872-4.608zM568.32 266.24q-11.264 0-19.968 8.704t-8.704 20.992q0 11.264 8.704 19.968t19.968 8.704q12.288 0 20.992-8.704t8.704-19.968q0-12.288-8.704-20.992t-20.992-8.704zM503.808 347.136q-12.288 0-20.992 8.704t-8.704 20.992q0 13.312 8.704 22.016t20.992 8.704q13.312 0 22.016-8.704t8.704-22.016q0-12.288-8.704-20.992t-22.016-8.704zM936.96 568.32l-19.456 0-36.864 0-45.056 0-46.08 0q-21.504 0-37.376 0.512t-19.968 0.512q-11.264 0-19.968 8.704t-8.704 31.232q0 18.432 10.24 26.624t21.504 8.192l199.68 0q11.264 0 20.992-7.168t9.728-29.696q0-20.48-8.192-29.184t-20.48-9.728z" p-id="4215" fill="#0e932e"></path></svg>