<?xml version="1.0" standalone="no"?><!DOCTYPE svg PUBLIC "-//W3C//DTD SVG 1.1//EN" "http://www.w3.org/Graphics/SVG/1.1/DTD/svg11.dtd"><svg t="1756766409724" class="icon" viewBox="0 0 1024 1024" version="1.1" xmlns="http://www.w3.org/2000/svg" p-id="30979" xmlns:xlink="http://www.w3.org/1999/xlink" width="200" height="200"><path d="M505.1 959.6c-185.8 0-336.9-151.1-336.9-336.9s151.1-336.9 336.9-336.9S842 436.9 842 622.6s-151.1 337-336.9 337z m0-651.5c-173.4 0-314.5 141.1-314.5 314.5s141.1 314.5 314.5 314.5S819.6 796 819.6 622.6s-141-314.5-314.5-314.5z" fill="#0e932e" p-id="30980"></path><path d="M777.2 801.7C741.7 734.5 639.8 686 519.6 686c-135.1 0-247.1 61.3-267.7 141.5 58 71.6 145.8 118.2 244.6 120.8 3 0.1 6.1 0.1 9.1 0.1 113.5-0.2 213.5-58.5 271.6-146.7z" fill="#0e932e" p-id="30981"></path><path d="M505.6 959.6c-3.2 0-6.4 0-9.4-0.1-98.6-2.6-190.8-48.1-253-124.9l-3.5-4.4 1.4-5.5c22.4-86.8 139.5-149.9 278.6-149.9 121.5 0 229 48.9 267.5 121.6l3.1 5.9-3.6 5.5C724.1 902.7 619 959.4 505.6 959.6zM264.3 824.9c58 69 142.4 109.8 232.5 112.2 2.9 0.1 5.9 0.1 8.8 0.1 103.6-0.1 199.8-50.9 258.5-136-17.2-28.4-48.4-54-88.6-72.3-45.3-20.7-99.2-31.6-155.9-31.6-63.1 0-124 14-171.5 39.3-43.5 23.2-73 54.4-83.8 88.3z" fill="#0e932e" p-id="30982"></path><path d="M242 413.8a54.8 70.1 0 1 0 109.6 0 54.8 70.1 0 1 0-109.6 0Z" fill="#0e932e" p-id="30983"></path><path d="M296.8 495.1c-36.4 0-66-36.4-66-81.2s29.6-81.2 66-81.2 66 36.4 66 81.2-29.7 81.2-66 81.2z m0-140.2c-24.1 0-43.6 26.4-43.6 58.9s19.6 58.9 43.6 58.9c24.1 0 43.6-26.4 43.6-58.9s-19.6-58.9-43.6-58.9z" fill="#0e932e" p-id="30984"></path><path d="M689.3 406.2a52.9 67.6 0 1 0 105.8 0 52.9 67.6 0 1 0-105.8 0Z" fill="#0e932e" p-id="30985"></path><path d="M742.2 485c-35.3 0-64-35.3-64-78.7s28.7-78.7 64-78.7 64 35.3 64 78.7-28.7 78.7-64 78.7z m0-135.1c-23 0-41.7 25.3-41.7 56.4s18.7 56.4 41.7 56.4c23 0 41.7-25.3 41.7-56.4s-18.8-56.4-41.7-56.4z" fill="#0e932e" p-id="30986"></path><path d="M519.5 728.8c-26.6 0-48.3-21.8-48.3-48.3V627c0-26.6 21.8-48.3 48.3-48.3 26.6 0 48.3 21.8 48.3 48.3v53.4c0.1 26.6-21.7 48.4-48.3 48.4z" fill="#0e932e" p-id="30987"></path><path d="M519.5 740c-32.8 0-59.5-26.7-59.5-59.5V627c0-32.8 26.7-59.5 59.5-59.5S579 594.2 579 627v53.4c0 32.9-26.7 59.6-59.5 59.6z m0-150.1c-20.5 0-37.2 16.7-37.2 37.2v53.4c0 20.5 16.7 37.2 37.2 37.2 20.5 0 37.2-16.7 37.2-37.2V627c0-20.5-16.7-37.1-37.2-37.1z" fill="#0e932e" p-id="30988"></path><path d="M743 387.1c0 135.6-99.9 245.4-223 245.4S297 522.7 297 387.1s99.9-245.4 223-245.4c77 0 164.9 11.5 205 76.8 24 39.1 18 117.8 18 168.6z" fill="#0e932e" p-id="30989"></path><path d="M520 643.7c-129.1 0-234.2-115.1-234.2-256.6S390.9 130.5 520 130.5c70.4 0 169.3 8.5 214.5 82.1 22 35.8 20.9 98.5 20 148.8-0.2 9.1-0.3 17.8-0.3 25.7 0 141.5-105 256.6-234.2 256.6z m0-490.8c-116.8 0-211.9 105.1-211.9 234.3s95 234.3 211.9 234.3 211.9-105.1 211.9-234.3c0-8.1 0.1-16.8 0.3-26.1 0.8-47.5 1.8-106.6-16.7-136.8-39.4-64-130.4-71.4-195.5-71.4z" fill="#0e932e" p-id="30990"></path><path d="M258.3 355.2S225.9 82.6 416.5 77.8c128.6-3.2 367.9 0 367.9 0s-10.8 104.4-78.2 153.5c-66.7 48.6-92.5 70.5-226.8 49.6-77.7-12.2-221.4 88.6-221.4 88.6l0.3-14.3z" fill="#0e932e" p-id="30991"></path><path d="M246.5 391.3l0.6-35.5c-1.5-13.3-15.7-157.4 53.6-237.4 28.7-33.1 67.5-50.5 115.5-51.7 127.4-3.2 365.9 0 368.3 0l12.2 0.2-1.1 12.1c-0.5 4.5-12.1 109.9-82.7 161.3l-5.1 3.7c-32.5 23.7-55.9 40.8-89.2 49.6-33.7 8.9-75.9 8.4-140.9-1.7-72.4-11.3-211.8 85.8-213.2 86.7l-18 12.7zM568.7 87.6c-54.4 0-109.4 0.4-151.9 1.4-41.4 1-74.8 15.8-99.1 43.9-57.8 66.7-51 189.4-48.8 215.9 41.4-26.7 146.7-89.2 212.2-79 126.4 19.7 151.9 1.1 213.5-43.9l5.1-3.7c49.5-36.1 66.7-105.4 71.8-133.4-31.6-0.3-116.5-1.2-202.8-1.2z" fill="#0e932e" p-id="30992"></path><path d="M600.7 474.9c0 31.9-34.1 57.8-76.1 57.8s-76.1-25.9-76.1-57.8" fill="#0e932e" p-id="30993"></path><path d="M524.5 543.9c-48.1 0-87.3-30.9-87.3-69 0-6.2 5-11.2 11.2-11.2s11.2 5 11.2 11.2c0 25.7 29.1 46.6 64.9 46.6s64.9-20.9 64.9-46.6c0-6.2 5-11.2 11.2-11.2s11.2 5 11.2 11.2c0 38-39.1 69-87.3 69z" fill="#0e932e" p-id="30994"></path><path d="M439.6 399.5m-22.9 0a22.9 22.9 0 1 0 45.8 0 22.9 22.9 0 1 0-45.8 0Z" fill="#0e932e" p-id="30995"></path><path d="M439.6 433.6c-18.8 0-34.1-15.3-34.1-34.1s15.3-34.1 34.1-34.1 34.1 15.3 34.1 34.1c-0.1 18.8-15.4 34.1-34.1 34.1z m0-45.8c-6.4 0-11.7 5.2-11.7 11.7 0 6.4 5.2 11.7 11.7 11.7 6.4 0 11.7-5.2 11.7-11.7 0-6.5-5.3-11.7-11.7-11.7z" fill="#0e932e" p-id="30996"></path><path d="M600.7 399.5m-22.9 0a22.9 22.9 0 1 0 45.8 0 22.9 22.9 0 1 0-45.8 0Z" fill="#0e932e" p-id="30997"></path><path d="M600.7 433.6c-18.8 0-34.1-15.3-34.1-34.1s15.3-34.1 34.1-34.1 34.1 15.3 34.1 34.1c-0.1 18.8-15.4 34.1-34.1 34.1z m0-45.8c-6.4 0-11.7 5.2-11.7 11.7 0 6.4 5.2 11.7 11.7 11.7 6.4 0 11.7-5.2 11.7-11.7 0-6.5-5.3-11.7-11.7-11.7z" fill="#0e932e" p-id="30998"></path></svg>